<mxfile host="app.diagrams.net" modified="2023-05-11T14:22:41.282Z" agent="Mozilla/5.0 (Windows NT 10.0; Win64; x64) AppleWebKit/537.36 (KHTML, like Gecko) Chrome/113.0.0.0 Safari/537.36" etag="TZpX7QHolHDV34rq7ne1" version="21.2.9" type="device">
  <diagram name="Page-1" id="ZJGfntSBSURbsJH0zlPE">
    <mxGraphModel dx="1050" dy="703" grid="1" gridSize="10" guides="1" tooltips="1" connect="1" arrows="1" fold="1" page="1" pageScale="1" pageWidth="850" pageHeight="1100" math="0" shadow="0">
      <root>
        <mxCell id="0" />
        <mxCell id="1" parent="0" />
        <mxCell id="VqTpJ57kMd0ViIm1Snvg-21" value="" style="shape=parallelogram;perimeter=parallelogramPerimeter;whiteSpace=wrap;html=1;fixedSize=1;rotation=-10.4;size=13.75;direction=west;fillColor=#dae8fc;strokeColor=#6c8ebf;" vertex="1" parent="1">
          <mxGeometry x="239" y="170.64000000000001" width="69.15" height="75.58" as="geometry" />
        </mxCell>
        <mxCell id="VqTpJ57kMd0ViIm1Snvg-29" value="" style="ellipse;whiteSpace=wrap;html=1;aspect=fixed;" vertex="1" parent="1">
          <mxGeometry x="269" y="205" width="10" height="10" as="geometry" />
        </mxCell>
        <mxCell id="VqTpJ57kMd0ViIm1Snvg-20" value="" style="shape=parallelogram;perimeter=parallelogramPerimeter;whiteSpace=wrap;html=1;fixedSize=1;rotation=-9;size=13.75;direction=west;fillColor=#f5f5f5;fontColor=#333333;strokeColor=#666666;" vertex="1" parent="1">
          <mxGeometry x="88" y="163" width="95" height="92.17" as="geometry" />
        </mxCell>
        <mxCell id="VqTpJ57kMd0ViIm1Snvg-7" value="" style="shape=parallelogram;perimeter=parallelogramPerimeter;whiteSpace=wrap;html=1;fixedSize=1;rotation=-8.7;size=13.75;direction=west;dashed=1;fillColor=#f5f5f5;fontColor=#333333;strokeColor=#666666;" vertex="1" parent="1">
          <mxGeometry x="357.56" y="162.35" width="95" height="92.17" as="geometry" />
        </mxCell>
        <mxCell id="VqTpJ57kMd0ViIm1Snvg-1" value="Actor" style="shape=umlActor;verticalLabelPosition=bottom;verticalAlign=top;html=1;outlineConnect=0;fontColor=none;noLabel=1;" vertex="1" parent="1">
          <mxGeometry x="532" y="137" width="74" height="148" as="geometry" />
        </mxCell>
        <mxCell id="VqTpJ57kMd0ViIm1Snvg-3" value="Actor" style="shape=umlActor;verticalLabelPosition=bottom;verticalAlign=top;html=1;outlineConnect=0;fontColor=none;noLabel=1;direction=west;" vertex="1" parent="1">
          <mxGeometry x="118" y="174.09" width="35" height="70" as="geometry" />
        </mxCell>
        <mxCell id="VqTpJ57kMd0ViIm1Snvg-4" value="Actor" style="shape=umlActor;verticalLabelPosition=bottom;verticalAlign=top;html=1;outlineConnect=0;fontColor=none;noLabel=1;direction=east;" vertex="1" parent="1">
          <mxGeometry x="389" y="177.79" width="32.11" height="64.21" as="geometry" />
        </mxCell>
        <mxCell id="VqTpJ57kMd0ViIm1Snvg-27" value="" style="endArrow=none;dashed=1;html=1;strokeWidth=1;rounded=0;" edge="1" parent="1">
          <mxGeometry width="50" height="50" relative="1" as="geometry">
            <mxPoint x="137" y="245" as="sourcePoint" />
            <mxPoint x="572" y="134" as="targetPoint" />
          </mxGeometry>
        </mxCell>
        <mxCell id="VqTpJ57kMd0ViIm1Snvg-28" value="" style="endArrow=none;dashed=1;html=1;strokeWidth=1;rounded=0;" edge="1" parent="1">
          <mxGeometry width="50" height="50" relative="1" as="geometry">
            <mxPoint x="155" y="175" as="sourcePoint" />
            <mxPoint x="530" y="286" as="targetPoint" />
          </mxGeometry>
        </mxCell>
        <mxCell id="VqTpJ57kMd0ViIm1Snvg-32" value="" style="rounded=0;whiteSpace=wrap;html=1;strokeColor=none;rotation=-0.6000000000000001;fillColor=#dae8fc;" vertex="1" parent="1">
          <mxGeometry x="247" y="182" width="21" height="60" as="geometry" />
        </mxCell>
        <mxCell id="VqTpJ57kMd0ViIm1Snvg-33" value="Image plane" style="text;html=1;align=center;verticalAlign=middle;resizable=0;points=[];autosize=1;strokeColor=none;fillColor=none;" vertex="1" parent="1">
          <mxGeometry x="93" y="120" width="90" height="30" as="geometry" />
        </mxCell>
        <mxCell id="VqTpJ57kMd0ViIm1Snvg-34" value="Pinhole" style="text;html=1;align=center;verticalAlign=middle;resizable=0;points=[];autosize=1;strokeColor=none;fillColor=none;" vertex="1" parent="1">
          <mxGeometry x="244" y="120" width="60" height="30" as="geometry" />
        </mxCell>
        <mxCell id="VqTpJ57kMd0ViIm1Snvg-35" value="Virtual image" style="text;html=1;align=center;verticalAlign=middle;resizable=0;points=[];autosize=1;strokeColor=none;fillColor=none;" vertex="1" parent="1">
          <mxGeometry x="360" y="120" width="90" height="30" as="geometry" />
        </mxCell>
        <mxCell id="VqTpJ57kMd0ViIm1Snvg-39" value="" style="endArrow=none;html=1;rounded=0;strokeWidth=0.5;" edge="1" parent="1">
          <mxGeometry width="50" height="50" relative="1" as="geometry">
            <mxPoint x="135.33" y="300" as="sourcePoint" />
            <mxPoint x="135.33" y="260" as="targetPoint" />
          </mxGeometry>
        </mxCell>
        <mxCell id="VqTpJ57kMd0ViIm1Snvg-42" value="" style="endArrow=classic;startArrow=classic;html=1;rounded=0;" edge="1" parent="1">
          <mxGeometry width="50" height="50" relative="1" as="geometry">
            <mxPoint x="278" y="301" as="sourcePoint" />
            <mxPoint x="403" y="300" as="targetPoint" />
          </mxGeometry>
        </mxCell>
        <mxCell id="VqTpJ57kMd0ViIm1Snvg-43" value="" style="endArrow=classic;startArrow=classic;html=1;rounded=0;" edge="1" parent="1">
          <mxGeometry width="50" height="50" relative="1" as="geometry">
            <mxPoint x="140" y="301" as="sourcePoint" />
            <mxPoint x="268" y="300" as="targetPoint" />
          </mxGeometry>
        </mxCell>
        <mxCell id="VqTpJ57kMd0ViIm1Snvg-44" value="" style="endArrow=none;html=1;rounded=0;strokeWidth=0.5;" edge="1" parent="1">
          <mxGeometry width="50" height="50" relative="1" as="geometry">
            <mxPoint x="273.41" y="300" as="sourcePoint" />
            <mxPoint x="273.41" y="260" as="targetPoint" />
          </mxGeometry>
        </mxCell>
        <mxCell id="VqTpJ57kMd0ViIm1Snvg-46" value="" style="endArrow=none;html=1;rounded=0;strokeWidth=0.5;" edge="1" parent="1">
          <mxGeometry width="50" height="50" relative="1" as="geometry">
            <mxPoint x="404.83000000000004" y="300" as="sourcePoint" />
            <mxPoint x="404.83000000000004" y="260" as="targetPoint" />
          </mxGeometry>
        </mxCell>
        <mxCell id="VqTpJ57kMd0ViIm1Snvg-47" value="f" style="text;html=1;align=center;verticalAlign=middle;resizable=0;points=[];autosize=1;strokeColor=none;fillColor=none;fontStyle=1" vertex="1" parent="1">
          <mxGeometry x="187" y="274" width="30" height="30" as="geometry" />
        </mxCell>
        <mxCell id="VqTpJ57kMd0ViIm1Snvg-49" value="f" style="text;html=1;align=center;verticalAlign=middle;resizable=0;points=[];autosize=1;strokeColor=none;fillColor=none;fontStyle=1" vertex="1" parent="1">
          <mxGeometry x="325" y="275" width="30" height="30" as="geometry" />
        </mxCell>
        <mxCell id="VqTpJ57kMd0ViIm1Snvg-50" value="" style="endArrow=none;dashed=1;html=1;dashPattern=1 3;strokeWidth=1;rounded=0;" edge="1" parent="1">
          <mxGeometry width="50" height="50" relative="1" as="geometry">
            <mxPoint x="93" y="396" as="sourcePoint" />
            <mxPoint x="603" y="396" as="targetPoint" />
          </mxGeometry>
        </mxCell>
        <mxCell id="VqTpJ57kMd0ViIm1Snvg-51" value="" style="endArrow=classic;html=1;rounded=0;" edge="1" parent="1">
          <mxGeometry width="50" height="50" relative="1" as="geometry">
            <mxPoint x="135" y="396" as="sourcePoint" />
            <mxPoint x="100" y="436" as="targetPoint" />
          </mxGeometry>
        </mxCell>
        <mxCell id="VqTpJ57kMd0ViIm1Snvg-53" value="" style="endArrow=classic;html=1;rounded=0;" edge="1" parent="1">
          <mxGeometry width="50" height="50" relative="1" as="geometry">
            <mxPoint x="135" y="441" as="sourcePoint" />
            <mxPoint x="135" y="346" as="targetPoint" />
          </mxGeometry>
        </mxCell>
        <mxCell id="VqTpJ57kMd0ViIm1Snvg-55" value="x" style="text;html=1;align=center;verticalAlign=middle;resizable=0;points=[];autosize=1;strokeColor=none;fillColor=none;" vertex="1" parent="1">
          <mxGeometry x="110" y="336" width="30" height="30" as="geometry" />
        </mxCell>
        <mxCell id="VqTpJ57kMd0ViIm1Snvg-56" value="y" style="text;html=1;align=center;verticalAlign=middle;resizable=0;points=[];autosize=1;strokeColor=none;fillColor=none;" vertex="1" parent="1">
          <mxGeometry x="80" y="406" width="30" height="30" as="geometry" />
        </mxCell>
        <mxCell id="VqTpJ57kMd0ViIm1Snvg-57" value="" style="endArrow=none;html=1;rounded=0;strokeWidth=1;" edge="1" parent="1">
          <mxGeometry width="50" height="50" relative="1" as="geometry">
            <mxPoint x="567.66" y="396" as="sourcePoint" />
            <mxPoint x="568" y="316" as="targetPoint" />
          </mxGeometry>
        </mxCell>
        <mxCell id="VqTpJ57kMd0ViIm1Snvg-58" value="" style="endArrow=none;html=1;rounded=0;strokeWidth=1;" edge="1" parent="1">
          <mxGeometry width="50" height="50" relative="1" as="geometry">
            <mxPoint x="405" y="396" as="sourcePoint" />
            <mxPoint x="568" y="396" as="targetPoint" />
          </mxGeometry>
        </mxCell>
        <mxCell id="VqTpJ57kMd0ViIm1Snvg-59" value="" style="endArrow=none;html=1;rounded=0;strokeWidth=0.5;" edge="1" parent="1">
          <mxGeometry width="50" height="50" relative="1" as="geometry">
            <mxPoint x="405" y="396" as="sourcePoint" />
            <mxPoint x="404.76000000000005" y="360" as="targetPoint" />
          </mxGeometry>
        </mxCell>
        <mxCell id="VqTpJ57kMd0ViIm1Snvg-61" value="&lt;b&gt;X&lt;/b&gt;" style="text;html=1;align=center;verticalAlign=middle;resizable=0;points=[];autosize=1;strokeColor=none;fillColor=none;" vertex="1" parent="1">
          <mxGeometry x="543" y="341" width="30" height="30" as="geometry" />
        </mxCell>
        <mxCell id="VqTpJ57kMd0ViIm1Snvg-62" value="Z" style="text;html=1;align=center;verticalAlign=middle;resizable=0;points=[];autosize=1;strokeColor=none;fillColor=none;" vertex="1" parent="1">
          <mxGeometry x="1050" y="1380" width="30" height="30" as="geometry" />
        </mxCell>
        <mxCell id="VqTpJ57kMd0ViIm1Snvg-63" value="" style="rhombus;whiteSpace=wrap;html=1;fillColor=#f8cecc;strokeColor=#b85450;" vertex="1" parent="1">
          <mxGeometry x="563" y="130" width="10" height="10" as="geometry" />
        </mxCell>
        <mxCell id="VqTpJ57kMd0ViIm1Snvg-67" value="" style="endArrow=none;dashed=1;html=1;strokeWidth=1;rounded=0;" edge="1" parent="1">
          <mxGeometry width="50" height="50" relative="1" as="geometry">
            <mxPoint x="135" y="433" as="sourcePoint" />
            <mxPoint x="568" y="315" as="targetPoint" />
          </mxGeometry>
        </mxCell>
        <mxCell id="VqTpJ57kMd0ViIm1Snvg-65" value="" style="rhombus;whiteSpace=wrap;html=1;fillColor=#f8cecc;strokeColor=#b85450;" vertex="1" parent="1">
          <mxGeometry x="563" y="310" width="10" height="10" as="geometry" />
        </mxCell>
        <mxCell id="VqTpJ57kMd0ViIm1Snvg-68" value="" style="rhombus;whiteSpace=wrap;html=1;fillColor=#f8cecc;strokeColor=#b85450;" vertex="1" parent="1">
          <mxGeometry x="130" y="428" width="10" height="10" as="geometry" />
        </mxCell>
        <mxCell id="VqTpJ57kMd0ViIm1Snvg-72" value="" style="endArrow=classic;html=1;rounded=0;" edge="1" parent="1">
          <mxGeometry width="50" height="50" relative="1" as="geometry">
            <mxPoint x="272" y="396" as="sourcePoint" />
            <mxPoint x="272" y="346" as="targetPoint" />
          </mxGeometry>
        </mxCell>
        <mxCell id="VqTpJ57kMd0ViIm1Snvg-74" value="" style="endArrow=classic;html=1;rounded=0;" edge="1" parent="1">
          <mxGeometry width="50" height="50" relative="1" as="geometry">
            <mxPoint x="272" y="395" as="sourcePoint" />
            <mxPoint x="237" y="435" as="targetPoint" />
          </mxGeometry>
        </mxCell>
        <mxCell id="VqTpJ57kMd0ViIm1Snvg-76" value="" style="endArrow=classic;html=1;rounded=0;" edge="1" parent="1">
          <mxGeometry width="50" height="50" relative="1" as="geometry">
            <mxPoint x="272" y="396" as="sourcePoint" />
            <mxPoint x="330" y="396" as="targetPoint" />
          </mxGeometry>
        </mxCell>
        <mxCell id="VqTpJ57kMd0ViIm1Snvg-77" value="x" style="text;html=1;align=center;verticalAlign=middle;resizable=0;points=[];autosize=1;strokeColor=none;fillColor=none;" vertex="1" parent="1">
          <mxGeometry x="397" y="362" width="30" height="30" as="geometry" />
        </mxCell>
        <mxCell id="VqTpJ57kMd0ViIm1Snvg-78" value="&lt;b&gt;Z&lt;/b&gt;" style="text;html=1;align=center;verticalAlign=middle;resizable=0;points=[];autosize=1;strokeColor=none;fillColor=none;" vertex="1" parent="1">
          <mxGeometry x="472" y="370" width="30" height="30" as="geometry" />
        </mxCell>
        <mxCell id="VqTpJ57kMd0ViIm1Snvg-79" value="&lt;b&gt;O&lt;/b&gt;" style="text;html=1;align=center;verticalAlign=middle;resizable=0;points=[];autosize=1;strokeColor=none;fillColor=none;" vertex="1" parent="1">
          <mxGeometry x="249" y="374" width="30" height="30" as="geometry" />
        </mxCell>
        <mxCell id="VqTpJ57kMd0ViIm1Snvg-80" value="y" style="text;html=1;align=center;verticalAlign=middle;resizable=0;points=[];autosize=1;strokeColor=none;fillColor=none;" vertex="1" parent="1">
          <mxGeometry x="217" y="408" width="30" height="30" as="geometry" />
        </mxCell>
        <mxCell id="VqTpJ57kMd0ViIm1Snvg-81" value="x" style="text;html=1;align=center;verticalAlign=middle;resizable=0;points=[];autosize=1;strokeColor=none;fillColor=none;" vertex="1" parent="1">
          <mxGeometry x="249" y="332" width="30" height="30" as="geometry" />
        </mxCell>
        <mxCell id="VqTpJ57kMd0ViIm1Snvg-82" value="z" style="text;html=1;align=center;verticalAlign=middle;resizable=0;points=[];autosize=1;strokeColor=none;fillColor=none;" vertex="1" parent="1">
          <mxGeometry x="285" y="389" width="30" height="30" as="geometry" />
        </mxCell>
      </root>
    </mxGraphModel>
  </diagram>
</mxfile>
